<svg width="74" height="76" viewBox="0 0 74 76" fill="none" xmlns="http://www.w3.org/2000/svg">
<path d="M34.5879 19.184C34.4493 20.7093 34.3453 22.1827 34.2759 23.604C34.2413 25.0253 34.2239 26.1173 34.2239 26.88C34.2239 27.5733 34.2413 28.232 34.2759 28.856C34.3106 29.48 34.3453 30 34.3799 30.416H33.1839C32.8373 27.8853 32.2999 25.892 31.5719 24.436C30.8439 22.9453 29.8906 21.9053 28.7119 21.316C27.5679 20.692 26.2159 20.38 24.6559 20.38H22.5239C21.5186 20.38 20.7559 20.4667 20.2359 20.64C19.7159 20.8133 19.3693 21.16 19.1959 21.68C19.0226 22.2 18.9359 22.9973 18.9359 24.072V51.112C18.9359 52.1867 19.0226 52.984 19.1959 53.504C19.3693 54.024 19.7159 54.3707 20.2359 54.544C20.7559 54.7173 21.5186 54.804 22.5239 54.804H25.0719C26.6319 54.804 28.0013 54.4747 29.1799 53.816C30.3933 53.1227 31.4159 51.9613 32.2479 50.332C33.1146 48.7027 33.7733 46.5013 34.2239 43.728H35.4199C35.3159 44.8373 35.2639 46.2933 35.2639 48.096C35.2639 48.8933 35.2813 50.02 35.3159 51.476C35.3506 52.932 35.4546 54.44 35.6279 56C33.8599 55.9307 31.8666 55.896 29.6479 55.896C27.4293 55.8613 25.4533 55.844 23.7199 55.844C22.8533 55.844 21.7439 55.844 20.3919 55.844C19.0399 55.844 17.5839 55.8613 16.0239 55.896C14.4639 55.896 12.8866 55.9133 11.2919 55.948C9.69728 55.948 8.18928 55.9653 6.76794 56V54.96C7.87728 54.8907 8.70928 54.752 9.26394 54.544C9.81861 54.336 10.1826 53.92 10.3559 53.296C10.5639 52.672 10.6679 51.736 10.6679 50.488V24.696C10.6679 23.4133 10.5639 22.4773 10.3559 21.888C10.1826 21.264 9.80128 20.848 9.21194 20.64C8.65728 20.3973 7.84261 20.2587 6.76794 20.224V19.184C8.18928 19.2187 9.69728 19.2533 11.2919 19.288C12.8866 19.288 14.4639 19.3053 16.0239 19.34C17.5839 19.34 19.0399 19.34 20.3919 19.34C21.7439 19.34 22.8533 19.34 23.7199 19.34C25.3146 19.34 27.1173 19.34 29.1279 19.34C31.1733 19.3053 32.9933 19.2533 34.5879 19.184ZM26.4759 36.968C26.4759 36.968 26.4759 37.1413 26.4759 37.488C26.4759 37.8347 26.4759 38.008 26.4759 38.008H17.3759C17.3759 38.008 17.3759 37.8347 17.3759 37.488C17.3759 37.1413 17.3759 36.968 17.3759 36.968H26.4759ZM27.9839 30.104C27.8453 32.08 27.7759 33.588 27.7759 34.628C27.8106 35.668 27.8279 36.6213 27.8279 37.488C27.8279 38.3547 27.8453 39.308 27.8799 40.348C27.9146 41.388 28.0013 42.896 28.1399 44.872H26.9439C26.7706 43.6587 26.4413 42.532 25.9559 41.492C25.5053 40.452 24.8466 39.62 23.9799 38.996C23.1133 38.3373 21.9866 38.008 20.5999 38.008V36.968C21.6399 36.968 22.5239 36.76 23.2519 36.344C23.9799 35.8933 24.5693 35.3213 25.0199 34.628C25.5053 33.9 25.8866 33.1373 26.1639 32.34C26.4413 31.5427 26.6493 30.7973 26.7879 30.104H27.9839Z" fill="#222222"/>
<path d="M52.725 18.508C54.7703 18.508 56.3476 18.7333 57.457 19.184C58.5663 19.6 59.5196 20.0507 60.317 20.536C60.733 20.7787 61.0623 20.9693 61.305 21.108C61.5823 21.212 61.8423 21.264 62.085 21.264C62.4316 21.264 62.6743 21.0733 62.813 20.692C62.9863 20.3107 63.125 19.7387 63.229 18.976H64.425C64.3903 19.6347 64.3383 20.432 64.269 21.368C64.2343 22.2693 64.1996 23.4653 64.165 24.956C64.165 26.4467 64.165 28.4053 64.165 30.832H62.969C62.8303 29.0293 62.4143 27.2787 61.721 25.58C61.0276 23.8813 60.0396 22.4947 58.757 21.42C57.509 20.3107 55.9663 19.756 54.129 19.756C52.465 19.756 51.0956 20.224 50.021 21.16C48.9463 22.096 48.409 23.396 48.409 25.06C48.409 26.4467 48.7556 27.6427 49.449 28.648C50.1423 29.6187 51.1476 30.572 52.465 31.508C53.817 32.444 55.4463 33.5707 57.353 34.888C59.017 35.9627 60.5076 37.0373 61.825 38.112C63.1423 39.1867 64.1996 40.4 64.997 41.752C65.7943 43.104 66.193 44.716 66.193 46.588C66.193 48.876 65.5863 50.7653 64.373 52.256C63.1943 53.7467 61.6343 54.8733 59.693 55.636C57.7516 56.364 55.6196 56.728 53.297 56.728C51.1476 56.728 49.4316 56.52 48.149 56.104C46.8663 55.688 45.7916 55.2547 44.925 54.804C44.1623 54.3187 43.573 54.076 43.157 54.076C42.8103 54.076 42.5503 54.2667 42.377 54.648C42.2383 55.0293 42.117 55.6013 42.013 56.364H40.817C40.8863 55.532 40.921 54.5613 40.921 53.452C40.9556 52.3427 40.973 50.904 40.973 49.136C41.0076 47.3333 41.025 45.0627 41.025 42.324H42.221C42.3596 44.612 42.741 46.7613 43.365 48.772C44.0236 50.748 45.0116 52.3427 46.329 53.556C47.681 54.7693 49.4663 55.376 51.685 55.376C52.8983 55.376 53.973 55.168 54.909 54.752C55.8796 54.3013 56.6596 53.6427 57.249 52.776C57.8383 51.9093 58.133 50.8347 58.133 49.552C58.133 48.096 57.7863 46.8307 57.093 45.756C56.4343 44.6813 55.5156 43.676 54.337 42.74C53.193 41.804 51.8583 40.8507 50.333 39.88C48.7036 38.8053 47.1783 37.7307 45.757 36.656C44.3356 35.5813 43.1916 34.3507 42.325 32.964C41.493 31.5773 41.077 29.9307 41.077 28.024C41.077 25.84 41.6143 24.0547 42.689 22.668C43.7983 21.2467 45.237 20.2067 47.005 19.548C48.8076 18.8547 50.7143 18.508 52.725 18.508Z" fill="#1C8C72"/>
<rect x="0.5" y="0.5" width="73" height="74.0137" stroke="#1C8C72"/>
</svg>
