<svg width="237" height="93" viewBox="0 0 237 93" fill="none" xmlns="http://www.w3.org/2000/svg">
<path d="M28.588 4.184C28.4493 5.70933 28.3453 7.18267 28.276 8.604C28.2413 10.0253 28.224 11.1173 28.224 11.88C28.224 12.5733 28.2413 13.232 28.276 13.856C28.3107 14.48 28.3453 15 28.38 15.416H27.184C26.8373 12.8853 26.3 10.892 25.572 9.436C24.844 7.94533 23.8907 6.90533 22.712 6.316C21.568 5.692 20.216 5.38 18.656 5.38H16.524C15.5187 5.38 14.756 5.46666 14.236 5.64C13.716 5.81333 13.3693 6.16 13.196 6.68C13.0227 7.2 12.936 7.99733 12.936 9.072V36.112C12.936 37.1867 13.0227 37.984 13.196 38.504C13.3693 39.024 13.716 39.3707 14.236 39.544C14.756 39.7173 15.5187 39.804 16.524 39.804H19.072C20.632 39.804 22.0013 39.4747 23.18 38.816C24.3933 38.1227 25.416 36.9613 26.248 35.332C27.1147 33.7027 27.7733 31.5013 28.224 28.728H29.42C29.316 29.8373 29.264 31.2933 29.264 33.096C29.264 33.8933 29.2813 35.02 29.316 36.476C29.3507 37.932 29.4547 39.44 29.628 41C27.86 40.9307 25.8667 40.896 23.648 40.896C21.4293 40.8613 19.4533 40.844 17.72 40.844C16.8533 40.844 15.744 40.844 14.392 40.844C13.04 40.844 11.584 40.8613 10.024 40.896C8.464 40.896 6.88667 40.9133 5.292 40.948C3.69733 40.948 2.18933 40.9653 0.768 41V39.96C1.87733 39.8907 2.70933 39.752 3.264 39.544C3.81867 39.336 4.18267 38.92 4.356 38.296C4.564 37.672 4.668 36.736 4.668 35.488V9.696C4.668 8.41333 4.564 7.47733 4.356 6.888C4.18267 6.264 3.80133 5.848 3.212 5.64C2.65733 5.39733 1.84267 5.25867 0.768 5.224V4.184C2.18933 4.21867 3.69733 4.25333 5.292 4.288C6.88667 4.288 8.464 4.30533 10.024 4.34C11.584 4.34 13.04 4.34 14.392 4.34C15.744 4.34 16.8533 4.34 17.72 4.34C19.3147 4.34 21.1173 4.34 23.128 4.34C25.1733 4.30533 26.9933 4.25333 28.588 4.184ZM20.476 21.968C20.476 21.968 20.476 22.1413 20.476 22.488C20.476 22.8347 20.476 23.008 20.476 23.008H11.376C11.376 23.008 11.376 22.8347 11.376 22.488C11.376 22.1413 11.376 21.968 11.376 21.968H20.476ZM21.984 15.104C21.8453 17.08 21.776 18.588 21.776 19.628C21.8107 20.668 21.828 21.6213 21.828 22.488C21.828 23.3547 21.8453 24.308 21.88 25.348C21.9147 26.388 22.0013 27.896 22.14 29.872H20.944C20.7707 28.6587 20.4413 27.532 19.956 26.492C19.5053 25.452 18.8467 24.62 17.98 23.996C17.1133 23.3373 15.9867 23.008 14.6 23.008V21.968C15.64 21.968 16.524 21.76 17.252 21.344C17.98 20.8933 18.5693 20.3213 19.02 19.628C19.5053 18.9 19.8867 18.1373 20.164 17.34C20.4413 16.5427 20.6493 15.7973 20.788 15.104H21.984ZM43.813 0.283997V36.164C43.813 37.62 44.0557 38.608 44.541 39.128C45.061 39.648 45.9277 39.908 47.141 39.908V41C46.4824 40.9653 45.4944 40.9307 44.177 40.896C42.8597 40.8267 41.525 40.792 40.173 40.792C38.821 40.792 37.4517 40.8267 36.065 40.896C34.713 40.9307 33.6904 40.9653 32.997 41V39.908C34.2104 39.908 35.0597 39.648 35.545 39.128C36.065 38.608 36.325 37.62 36.325 36.164V6.524C36.325 4.964 36.0824 3.82 35.597 3.092C35.1464 2.32933 34.2797 1.948 32.997 1.948V0.855999C34.1064 0.959998 35.181 1.012 36.221 1.012C37.6424 1.012 38.9944 0.959998 40.277 0.855999C41.5597 0.717332 42.7384 0.526665 43.813 0.283997ZM74.7815 14.116V15.156C74.1228 15.3293 73.4988 15.7453 72.9095 16.404C72.3201 17.028 71.7481 18.1027 71.1935 19.628L63.8615 40.22L61.9375 43.86L50.6015 18.12C50.0121 16.768 49.4228 15.9533 48.8335 15.676C48.2788 15.364 47.7935 15.208 47.3775 15.208V14.116C48.5215 14.22 49.7001 14.3067 50.9135 14.376C52.1615 14.4107 53.3575 14.428 54.5015 14.428C55.9228 14.428 57.2228 14.3933 58.4015 14.324C59.5801 14.2547 60.6895 14.1853 61.7295 14.116V15.208C61.0361 15.208 60.3775 15.26 59.7535 15.364C59.1641 15.4333 58.7481 15.676 58.5055 16.092C58.2975 16.4733 58.4015 17.1493 58.8175 18.12L65.3695 33.928L64.9015 34.24L68.7495 23.476C69.4081 21.604 69.6855 20.0787 69.5815 18.9C69.4775 17.6867 69.0961 16.7853 68.4375 16.196C67.7788 15.572 66.8775 15.2253 65.7335 15.156V14.116C66.2881 14.1507 66.8601 14.1853 67.4495 14.22C68.0388 14.22 68.6281 14.2373 69.2175 14.272C69.8068 14.272 70.3268 14.272 70.7775 14.272C71.4708 14.272 72.1988 14.2547 72.9615 14.22C73.7241 14.1853 74.3308 14.1507 74.7815 14.116ZM63.8615 40.22L61.8855 45.784C61.5388 46.6507 61.1748 47.3787 60.7935 47.968C60.4468 48.592 60.0481 49.0947 59.5975 49.476C59.1121 49.892 58.4881 50.204 57.7255 50.412C56.9628 50.6547 56.0788 50.776 55.0735 50.776C54.2415 50.776 53.3748 50.6373 52.4735 50.36C51.6068 50.0827 50.8788 49.632 50.2895 49.008C49.7001 48.384 49.4055 47.5867 49.4055 46.616C49.4055 45.5413 49.7868 44.6747 50.5495 44.016C51.3121 43.392 52.3175 43.08 53.5655 43.08C54.7095 43.08 55.6455 43.3573 56.3735 43.912C57.1015 44.4667 57.4655 45.2813 57.4655 46.356C57.4655 47.0493 57.2401 47.708 56.7895 48.332C56.3735 48.956 55.7321 49.424 54.8655 49.736C55.0388 49.7707 55.2468 49.788 55.4895 49.788C55.7321 49.788 55.9228 49.788 56.0615 49.788C57.1015 49.788 58.0201 49.4587 58.8175 48.8C59.6148 48.1413 60.2735 47.1013 60.7935 45.68L62.6135 40.324L63.8615 40.22ZM86.0049 13.388C87.4609 13.388 88.7263 13.5787 89.8009 13.96C90.9103 14.3067 91.7076 14.6533 92.1929 15C93.3716 15.7973 94.0996 15.2773 94.3769 13.44H95.4689C95.3996 14.4107 95.3476 15.6067 95.3129 17.028C95.2783 18.4147 95.2609 20.2693 95.2609 22.592H94.1689C93.9956 21.3093 93.6663 20.044 93.1809 18.796C92.6956 17.548 91.9849 16.5253 91.0489 15.728C90.1476 14.9307 88.9689 14.532 87.5129 14.532C86.5076 14.532 85.6583 14.8267 84.9649 15.416C84.2716 15.9707 83.9249 16.7853 83.9249 17.86C83.9249 18.9 84.2369 19.8187 84.8609 20.616C85.4849 21.3787 86.2823 22.124 87.2529 22.852C88.2583 23.5453 89.2983 24.2907 90.3729 25.088C91.5169 25.9547 92.5569 26.8213 93.4929 27.688C94.4289 28.52 95.1743 29.4387 95.7289 30.444C96.2836 31.4493 96.5609 32.6453 96.5609 34.032C96.5609 35.592 96.1103 36.9613 95.2089 38.14C94.3076 39.284 93.1116 40.168 91.6209 40.792C90.1649 41.416 88.5356 41.728 86.7329 41.728C85.6929 41.728 84.7569 41.624 83.9249 41.416C83.1276 41.208 82.4343 40.948 81.8449 40.636C81.3943 40.428 80.9609 40.2373 80.5449 40.064C80.1636 39.856 79.7996 39.6827 79.4529 39.544C79.1063 39.44 78.7943 39.5613 78.5169 39.908C78.2743 40.2547 78.0836 40.74 77.9449 41.364H76.8529C76.9223 40.2547 76.9743 38.9027 77.0089 37.308C77.0436 35.7133 77.0609 33.5987 77.0609 30.964H78.1529C78.3609 32.836 78.7423 34.5 79.2969 35.956C79.8516 37.3773 80.5969 38.504 81.5329 39.336C82.5036 40.1333 83.7169 40.532 85.1729 40.532C85.7623 40.532 86.3343 40.4107 86.8889 40.168C87.4436 39.9253 87.8943 39.5267 88.2409 38.972C88.6223 38.4173 88.8129 37.7067 88.8129 36.84C88.8129 35.3147 88.3103 34.0493 87.3049 33.044C86.3343 32.0387 85.0863 30.9467 83.5609 29.768C82.4516 28.8667 81.3943 27.9827 80.3889 27.116C79.4183 26.2147 78.6209 25.244 77.9969 24.204C77.3729 23.1293 77.0609 21.916 77.0609 20.564C77.0609 19.004 77.4769 17.6867 78.3089 16.612C79.1409 15.5373 80.2329 14.74 81.5849 14.22C82.9716 13.6653 84.4449 13.388 86.0049 13.388ZM106.488 0.699998C107.944 0.699998 109.088 1.064 109.92 1.792C110.787 2.48533 111.22 3.456 111.22 4.704C111.22 5.952 110.787 6.94 109.92 7.668C109.088 8.36133 107.944 8.708 106.488 8.708C105.032 8.708 103.871 8.36133 103.004 7.668C102.172 6.94 101.756 5.952 101.756 4.704C101.756 3.456 102.172 2.48533 103.004 1.792C103.871 1.064 105.032 0.699998 106.488 0.699998ZM110.544 13.544V36.164C110.544 37.62 110.787 38.608 111.272 39.128C111.792 39.648 112.659 39.908 113.872 39.908V41C113.248 40.9653 112.278 40.9307 110.96 40.896C109.643 40.8267 108.308 40.792 106.956 40.792C105.604 40.792 104.235 40.8267 102.848 40.896C101.462 40.9307 100.422 40.9653 99.7285 41V39.908C100.942 39.908 101.791 39.648 102.276 39.128C102.796 38.608 103.056 37.62 103.056 36.164V19.784C103.056 18.224 102.814 17.08 102.328 16.352C101.878 15.5893 101.011 15.208 99.7285 15.208V14.116C100.838 14.22 101.912 14.272 102.952 14.272C104.408 14.272 105.76 14.22 107.008 14.116C108.291 13.9773 109.47 13.7867 110.544 13.544ZM123.307 41.364C121.747 41.364 120.447 41.0693 119.407 40.48C118.367 39.8907 117.604 39.1107 117.119 38.14C116.633 37.1347 116.391 36.0427 116.391 34.864C116.391 33.3733 116.72 32.16 117.379 31.224C118.072 30.288 118.956 29.5253 120.031 28.936C121.105 28.3467 122.232 27.8613 123.411 27.48C124.624 27.0987 125.768 26.7347 126.843 26.388C127.952 26.0067 128.836 25.5733 129.495 25.088C130.188 24.568 130.535 23.9093 130.535 23.112V19.056C130.535 18.1547 130.379 17.3573 130.067 16.664C129.789 15.936 129.339 15.3813 128.715 15C128.125 14.6187 127.345 14.428 126.375 14.428C125.681 14.428 124.988 14.532 124.295 14.74C123.601 14.9133 123.029 15.2253 122.579 15.676C123.549 16.0227 124.295 16.56 124.815 17.288C125.369 17.9813 125.647 18.7787 125.647 19.68C125.647 20.8587 125.231 21.7947 124.399 22.488C123.601 23.1813 122.648 23.528 121.539 23.528C120.291 23.528 119.337 23.1467 118.679 22.384C118.055 21.5867 117.743 20.6333 117.743 19.524C117.743 18.5187 117.985 17.6867 118.471 17.028C118.991 16.3693 119.701 15.7453 120.603 15.156C121.573 14.6013 122.735 14.168 124.087 13.856C125.473 13.544 126.964 13.388 128.559 13.388C130.153 13.388 131.592 13.5613 132.875 13.908C134.157 14.22 135.232 14.8093 136.099 15.676C136.896 16.4733 137.416 17.4613 137.659 18.64C137.901 19.784 138.023 21.24 138.023 23.008V37.152C138.023 38.0187 138.109 38.6253 138.283 38.972C138.456 39.284 138.751 39.44 139.167 39.44C139.479 39.44 139.773 39.3533 140.051 39.18C140.363 39.0067 140.692 38.7987 141.039 38.556L141.559 39.44C140.831 40.064 139.981 40.5493 139.011 40.896C138.075 41.208 137.017 41.364 135.839 41.364C134.556 41.364 133.533 41.1907 132.771 40.844C132.008 40.4627 131.453 39.96 131.107 39.336C130.795 38.712 130.639 37.984 130.639 37.152C129.807 38.4693 128.801 39.5093 127.623 40.272C126.444 41 125.005 41.364 123.307 41.364ZM126.999 38.036C127.692 38.036 128.316 37.88 128.871 37.568C129.46 37.2213 130.015 36.6667 130.535 35.904V25.244C130.223 25.764 129.789 26.232 129.235 26.648C128.68 27.064 128.091 27.4973 127.467 27.948C126.843 28.364 126.236 28.832 125.647 29.352C125.092 29.872 124.641 30.5133 124.295 31.276C123.948 32.0387 123.775 32.9573 123.775 34.032C123.775 35.384 124.069 36.3893 124.659 37.048C125.248 37.7067 126.028 38.036 126.999 38.036ZM162.389 13.388C163.845 13.388 165.024 13.5787 165.925 13.96C166.861 14.3067 167.589 14.792 168.109 15.416C168.664 16.0747 169.062 16.924 169.305 17.964C169.582 19.004 169.721 20.408 169.721 22.176V36.164C169.721 37.62 169.964 38.608 170.449 39.128C170.969 39.648 171.836 39.908 173.049 39.908V41C172.39 40.9653 171.402 40.9307 170.085 40.896C168.768 40.8267 167.468 40.792 166.185 40.792C164.868 40.792 163.568 40.8267 162.285 40.896C161.037 40.9307 160.084 40.9653 159.425 41V39.908C160.465 39.908 161.193 39.648 161.609 39.128C162.025 38.608 162.233 37.62 162.233 36.164V19.992C162.233 19.1253 162.146 18.38 161.973 17.756C161.8 17.0973 161.488 16.5947 161.037 16.248C160.586 15.8667 159.91 15.676 159.009 15.676C158.073 15.676 157.206 15.936 156.409 16.456C155.646 16.976 155.022 17.704 154.537 18.64C154.086 19.5413 153.861 20.564 153.861 21.708V36.164C153.861 37.62 154.069 38.608 154.485 39.128C154.936 39.648 155.664 39.908 156.669 39.908V41C156.045 40.9653 155.126 40.9307 153.913 40.896C152.734 40.8267 151.504 40.792 150.221 40.792C148.904 40.792 147.552 40.8267 146.165 40.896C144.778 40.9307 143.738 40.9653 143.045 41V39.908C144.258 39.908 145.108 39.648 145.593 39.128C146.113 38.608 146.373 37.62 146.373 36.164V19.784C146.373 18.224 146.13 17.08 145.645 16.352C145.194 15.5893 144.328 15.208 143.045 15.208V14.116C144.154 14.22 145.229 14.272 146.269 14.272C147.725 14.272 149.077 14.22 150.325 14.116C151.608 13.9773 152.786 13.7867 153.861 13.544V18.224C154.728 16.456 155.906 15.208 157.397 14.48C158.888 13.752 160.552 13.388 162.389 13.388Z" fill="#222222"/>
<path d="M13.768 45.508C15.8133 45.508 17.3907 45.7333 18.5 46.184C19.6093 46.6 20.5627 47.0507 21.36 47.536C21.776 47.7787 22.1053 47.9693 22.348 48.108C22.6253 48.212 22.8853 48.264 23.128 48.264C23.4747 48.264 23.7173 48.0733 23.856 47.692C24.0293 47.3107 24.168 46.7387 24.272 45.976H25.468C25.4333 46.6347 25.3813 47.432 25.312 48.368C25.2773 49.2693 25.2427 50.4653 25.208 51.956C25.208 53.4467 25.208 55.4053 25.208 57.832H24.012C23.8733 56.0293 23.4573 54.2787 22.764 52.58C22.0707 50.8813 21.0827 49.4947 19.8 48.42C18.552 47.3107 17.0093 46.756 15.172 46.756C13.508 46.756 12.1387 47.224 11.064 48.16C9.98933 49.096 9.452 50.396 9.452 52.06C9.452 53.4467 9.79867 54.6427 10.492 55.648C11.1853 56.6187 12.1907 57.572 13.508 58.508C14.86 59.444 16.4893 60.5707 18.396 61.888C20.06 62.9627 21.5507 64.0373 22.868 65.112C24.1853 66.1867 25.2427 67.4 26.04 68.752C26.8373 70.104 27.236 71.716 27.236 73.588C27.236 75.876 26.6293 77.7653 25.416 79.256C24.2373 80.7467 22.6773 81.8733 20.736 82.636C18.7947 83.364 16.6627 83.728 14.34 83.728C12.1907 83.728 10.4747 83.52 9.192 83.104C7.90933 82.688 6.83467 82.2547 5.968 81.804C5.20533 81.3187 4.616 81.076 4.2 81.076C3.85333 81.076 3.59333 81.2667 3.42 81.648C3.28133 82.0293 3.16 82.6013 3.056 83.364H1.86C1.92933 82.532 1.964 81.5613 1.964 80.452C1.99867 79.3427 2.016 77.904 2.016 76.136C2.05067 74.3333 2.068 72.0627 2.068 69.324H3.264C3.40267 71.612 3.784 73.7613 4.408 75.772C5.06667 77.748 6.05467 79.3427 7.372 80.556C8.724 81.7693 10.5093 82.376 12.728 82.376C13.9413 82.376 15.016 82.168 15.952 81.752C16.9227 81.3013 17.7027 80.6427 18.292 79.776C18.8813 78.9093 19.176 77.8347 19.176 76.552C19.176 75.096 18.8293 73.8307 18.136 72.756C17.4773 71.6813 16.5587 70.676 15.38 69.74C14.236 68.804 12.9013 67.8507 11.376 66.88C9.74667 65.8053 8.22133 64.7307 6.8 63.656C5.37867 62.5813 4.23467 61.3507 3.368 59.964C2.536 58.5773 2.12 56.9307 2.12 55.024C2.12 52.84 2.65733 51.0547 3.732 49.668C4.84133 48.2467 6.28 47.2067 8.048 46.548C9.85067 45.8547 11.7573 45.508 13.768 45.508ZM41.1712 47.588V56.116H47.3072V57.156H41.1712V78.164C41.1712 79.204 41.3619 79.9493 41.7432 80.4C42.1245 80.816 42.6965 81.024 43.4592 81.024C44.0832 81.024 44.7072 80.7987 45.3312 80.348C45.9552 79.8627 46.5099 79.048 46.9952 77.904L47.8792 78.372C47.3245 79.932 46.4752 81.2147 45.3312 82.22C44.2219 83.2253 42.6965 83.728 40.7552 83.728C39.6112 83.728 38.6059 83.572 37.7392 83.26C36.8725 82.9827 36.1445 82.5493 35.5552 81.96C34.7925 81.1973 34.2899 80.2613 34.0472 79.152C33.8045 78.008 33.6832 76.5347 33.6832 74.732V57.156H29.3152V56.116H33.6832V49.252C35.1392 49.252 36.4739 49.1307 37.6872 48.888C38.9352 48.6107 40.0965 48.1773 41.1712 47.588ZM66.7844 55.388C67.8938 55.388 68.7951 55.6307 69.4884 56.116C70.1818 56.5667 70.6844 57.156 70.9964 57.884C71.3431 58.612 71.5164 59.3747 71.5164 60.172C71.5164 61.4547 71.1351 62.512 70.3724 63.344C69.6444 64.1413 68.6738 64.54 67.4604 64.54C66.2471 64.54 65.2938 64.2453 64.6004 63.656C63.9418 63.032 63.6124 62.2173 63.6124 61.212C63.6124 60.2413 63.8204 59.444 64.2364 58.82C64.6871 58.1613 65.2418 57.6067 65.9004 57.156C65.4151 57.0173 64.9298 57.0347 64.4444 57.208C63.7858 57.312 63.1618 57.5893 62.5724 58.04C61.9831 58.456 61.4804 58.9933 61.0644 59.652C60.6484 60.276 60.3191 60.9693 60.0764 61.732C59.8338 62.46 59.7124 63.1707 59.7124 63.864V77.644C59.7124 79.308 60.1111 80.4347 60.9084 81.024C61.7404 81.6133 62.9711 81.908 64.6004 81.908V83C63.8031 82.9653 62.6418 82.9307 61.1164 82.896C59.5911 82.8267 57.9964 82.792 56.3324 82.792C54.9458 82.792 53.5418 82.8267 52.1204 82.896C50.6991 82.9307 49.6244 82.9653 48.8964 83V81.908C50.1098 81.908 50.9591 81.648 51.4444 81.128C51.9644 80.608 52.2244 79.62 52.2244 78.164V61.784C52.2244 60.224 51.9818 59.08 51.4964 58.352C51.0458 57.5893 50.1791 57.208 48.8964 57.208V56.116C50.0058 56.22 51.0804 56.272 52.1204 56.272C53.5764 56.272 54.9284 56.22 56.1764 56.116C57.4591 55.9773 58.6378 55.7867 59.7124 55.544V60.38C60.1284 59.444 60.6831 58.5947 61.3764 57.832C62.0698 57.0693 62.8671 56.48 63.7684 56.064C64.6698 55.6133 65.6751 55.388 66.7844 55.388ZM80.3459 83.364C78.7859 83.364 77.4859 83.0693 76.4459 82.48C75.4059 81.8907 74.6432 81.1107 74.1579 80.14C73.6725 79.1347 73.4299 78.0427 73.4299 76.864C73.4299 75.3733 73.7592 74.16 74.4179 73.224C75.1112 72.288 75.9952 71.5253 77.0699 70.936C78.1445 70.3467 79.2712 69.8613 80.4499 69.48C81.6632 69.0987 82.8072 68.7347 83.8819 68.388C84.9912 68.0067 85.8752 67.5733 86.5339 67.088C87.2272 66.568 87.5739 65.9093 87.5739 65.112V61.056C87.5739 60.1547 87.4179 59.3573 87.1059 58.664C86.8285 57.936 86.3779 57.3813 85.7539 57C85.1645 56.6187 84.3845 56.428 83.4139 56.428C82.7205 56.428 82.0272 56.532 81.3339 56.74C80.6405 56.9133 80.0685 57.2253 79.6179 57.676C80.5885 58.0227 81.3339 58.56 81.8539 59.288C82.4085 59.9813 82.6859 60.7787 82.6859 61.68C82.6859 62.8587 82.2699 63.7947 81.4379 64.488C80.6405 65.1813 79.6872 65.528 78.5779 65.528C77.3299 65.528 76.3765 65.1467 75.7179 64.384C75.0939 63.5867 74.7819 62.6333 74.7819 61.524C74.7819 60.5187 75.0245 59.6867 75.5099 59.028C76.0299 58.3693 76.7405 57.7453 77.6419 57.156C78.6125 56.6013 79.7739 56.168 81.1259 55.856C82.5125 55.544 84.0032 55.388 85.5979 55.388C87.1925 55.388 88.6312 55.5613 89.9139 55.908C91.1965 56.22 92.2712 56.8093 93.1379 57.676C93.9352 58.4733 94.4552 59.4613 94.6979 60.64C94.9405 61.784 95.0619 63.24 95.0619 65.008V79.152C95.0619 80.0187 95.1485 80.6253 95.3219 80.972C95.4952 81.284 95.7899 81.44 96.2059 81.44C96.5179 81.44 96.8125 81.3533 97.0899 81.18C97.4019 81.0067 97.7312 80.7987 98.0779 80.556L98.5979 81.44C97.8699 82.064 97.0205 82.5493 96.0499 82.896C95.1139 83.208 94.0565 83.364 92.8779 83.364C91.5952 83.364 90.5725 83.1907 89.8099 82.844C89.0472 82.4627 88.4925 81.96 88.1459 81.336C87.8339 80.712 87.6779 79.984 87.6779 79.152C86.8459 80.4693 85.8405 81.5093 84.6619 82.272C83.4832 83 82.0445 83.364 80.3459 83.364ZM84.0379 80.036C84.7312 80.036 85.3552 79.88 85.9099 79.568C86.4992 79.2213 87.0539 78.6667 87.5739 77.904V67.244C87.2619 67.764 86.8285 68.232 86.2739 68.648C85.7192 69.064 85.1299 69.4973 84.5059 69.948C83.8819 70.364 83.2752 70.832 82.6859 71.352C82.1312 71.872 81.6805 72.5133 81.3339 73.276C80.9872 74.0387 80.8139 74.9573 80.8139 76.032C80.8139 77.384 81.1085 78.3893 81.6979 79.048C82.2872 79.7067 83.0672 80.036 84.0379 80.036ZM110.64 47.588V56.116H116.776V57.156H110.64V78.164C110.64 79.204 110.831 79.9493 111.212 80.4C111.593 80.816 112.165 81.024 112.928 81.024C113.552 81.024 114.176 80.7987 114.8 80.348C115.424 79.8627 115.979 79.048 116.464 77.904L117.348 78.372C116.793 79.932 115.944 81.2147 114.8 82.22C113.691 83.2253 112.165 83.728 110.224 83.728C109.08 83.728 108.075 83.572 107.208 83.26C106.341 82.9827 105.613 82.5493 105.024 81.96C104.261 81.1973 103.759 80.2613 103.516 79.152C103.273 78.008 103.152 76.5347 103.152 74.732V57.156H98.7839V56.116H103.152V49.252C104.608 49.252 105.943 49.1307 107.156 48.888C108.404 48.6107 109.565 48.1773 110.64 47.588ZM131.578 55.388C134.629 55.388 137.021 56.2893 138.754 58.092C140.487 59.8947 141.354 62.8413 141.354 66.932H124.246L124.142 65.944H134.802C134.837 64.2453 134.733 62.6853 134.49 61.264C134.247 59.808 133.866 58.6467 133.346 57.78C132.826 56.9133 132.133 56.48 131.266 56.48C130.053 56.48 129.013 57.2427 128.146 58.768C127.314 60.2933 126.811 62.824 126.638 66.36L126.794 66.672C126.759 67.088 126.725 67.5213 126.69 67.972C126.69 68.4227 126.69 68.8907 126.69 69.376C126.69 71.768 127.019 73.7093 127.678 75.2C128.371 76.6907 129.238 77.7827 130.278 78.476C131.318 79.1347 132.375 79.464 133.45 79.464C134.178 79.464 134.923 79.36 135.686 79.152C136.483 78.9093 137.281 78.4933 138.078 77.904C138.875 77.28 139.621 76.4133 140.314 75.304L141.25 75.616C140.834 76.9333 140.175 78.216 139.274 79.464C138.373 80.712 137.229 81.7347 135.842 82.532C134.455 83.3293 132.791 83.728 130.85 83.728C128.493 83.728 126.413 83.2253 124.61 82.22C122.807 81.2147 121.386 79.6893 120.346 77.644C119.341 75.5987 118.838 72.9987 118.838 69.844C118.838 66.62 119.375 63.9333 120.45 61.784C121.559 59.6347 123.067 58.04 124.974 57C126.915 55.9253 129.117 55.388 131.578 55.388ZM154.453 92.776C152.304 92.776 150.38 92.5853 148.681 92.204C147.017 91.8573 145.7 91.3027 144.729 90.54C143.793 89.812 143.325 88.9107 143.325 87.836C143.325 86.7613 143.811 85.7907 144.781 84.924C145.752 84.092 147.191 83.4333 149.097 82.948L149.565 83.78C148.907 84.3 148.421 84.8547 148.109 85.444C147.832 86.068 147.693 86.7093 147.693 87.368C147.693 88.824 148.352 89.9333 149.669 90.696C151.021 91.4933 152.841 91.892 155.129 91.892C156.689 91.892 158.076 91.684 159.289 91.268C160.537 90.852 161.508 90.228 162.201 89.396C162.929 88.564 163.293 87.5413 163.293 86.328C163.293 85.288 162.912 84.404 162.149 83.676C161.387 82.9827 159.861 82.636 157.573 82.636H154.349C152.928 82.636 151.68 82.48 150.605 82.168C149.565 81.856 148.751 81.3707 148.161 80.712C147.572 80.0187 147.277 79.152 147.277 78.112C147.277 76.656 147.849 75.3733 148.993 74.264C150.137 73.1547 151.836 72.1147 154.089 71.144L154.609 71.56C153.951 71.976 153.327 72.4267 152.737 72.912C152.183 73.3627 151.905 73.952 151.905 74.68C151.905 75.7893 152.599 76.344 153.985 76.344H159.653C161.56 76.344 163.259 76.5693 164.749 77.02C166.275 77.4707 167.471 78.216 168.337 79.256C169.239 80.2613 169.689 81.5787 169.689 83.208C169.689 84.9067 169.135 86.484 168.025 87.94C166.951 89.396 165.287 90.5573 163.033 91.424C160.78 92.3253 157.92 92.776 154.453 92.776ZM154.973 71.924C152.997 71.924 151.229 71.6293 149.669 71.04C148.109 70.4507 146.879 69.5493 145.977 68.336C145.076 67.1227 144.625 65.5627 144.625 63.656C144.625 61.7493 145.076 60.1893 145.977 58.976C146.879 57.728 148.109 56.8267 149.669 56.272C151.229 55.6827 152.997 55.388 154.973 55.388C156.949 55.388 158.717 55.6827 160.277 56.272C161.837 56.8267 163.068 57.728 163.969 58.976C164.871 60.1893 165.321 61.7493 165.321 63.656C165.321 65.5627 164.871 67.1227 163.969 68.336C163.068 69.5493 161.837 70.4507 160.277 71.04C158.717 71.6293 156.949 71.924 154.973 71.924ZM154.973 70.988C155.909 70.988 156.637 70.468 157.157 69.428C157.677 68.3533 157.937 66.4293 157.937 63.656C157.937 60.8827 157.677 58.976 157.157 57.936C156.637 56.8613 155.909 56.324 154.973 56.324C154.072 56.324 153.344 56.8613 152.789 57.936C152.269 58.976 152.009 60.8827 152.009 63.656C152.009 66.4293 152.269 68.3533 152.789 69.428C153.344 70.468 154.072 70.988 154.973 70.988ZM163.085 59.86L162.045 59.496C162.565 58.144 163.397 57.0173 164.541 56.116C165.72 55.2147 166.985 54.764 168.337 54.764C169.447 54.764 170.279 55.076 170.833 55.7C171.423 56.2893 171.717 57.0693 171.717 58.04C171.717 59.08 171.44 59.86 170.885 60.38C170.331 60.8653 169.707 61.108 169.013 61.108C168.424 61.108 167.869 60.9 167.349 60.484C166.864 60.068 166.587 59.444 166.517 58.612C166.448 57.7453 166.743 56.636 167.401 55.284L167.765 55.596C166.448 56.0813 165.46 56.6533 164.801 57.312C164.143 57.936 163.571 58.7853 163.085 59.86ZM179.867 42.7C181.323 42.7 182.467 43.064 183.299 43.792C184.166 44.4853 184.599 45.456 184.599 46.704C184.599 47.952 184.166 48.94 183.299 49.668C182.467 50.3613 181.323 50.708 179.867 50.708C178.411 50.708 177.25 50.3613 176.383 49.668C175.551 48.94 175.135 47.952 175.135 46.704C175.135 45.456 175.551 44.4853 176.383 43.792C177.25 43.064 178.411 42.7 179.867 42.7ZM183.923 55.544V78.164C183.923 79.62 184.166 80.608 184.651 81.128C185.171 81.648 186.038 81.908 187.251 81.908V83C186.627 82.9653 185.657 82.9307 184.339 82.896C183.022 82.8267 181.687 82.792 180.335 82.792C178.983 82.792 177.614 82.8267 176.227 82.896C174.841 82.9307 173.801 82.9653 173.107 83V81.908C174.321 81.908 175.17 81.648 175.655 81.128C176.175 80.608 176.435 79.62 176.435 78.164V61.784C176.435 60.224 176.193 59.08 175.707 58.352C175.257 57.5893 174.39 57.208 173.107 57.208V56.116C174.217 56.22 175.291 56.272 176.331 56.272C177.787 56.272 179.139 56.22 180.387 56.116C181.67 55.9773 182.849 55.7867 183.923 55.544ZM202.926 55.388C205.976 55.388 208.368 56.2893 210.102 58.092C211.835 59.8947 212.702 62.8413 212.702 66.932H195.594L195.49 65.944H206.15C206.184 64.2453 206.08 62.6853 205.838 61.264C205.595 59.808 205.214 58.6467 204.694 57.78C204.174 56.9133 203.48 56.48 202.614 56.48C201.4 56.48 200.36 57.2427 199.494 58.768C198.662 60.2933 198.159 62.824 197.986 66.36L198.142 66.672C198.107 67.088 198.072 67.5213 198.038 67.972C198.038 68.4227 198.038 68.8907 198.038 69.376C198.038 71.768 198.367 73.7093 199.026 75.2C199.719 76.6907 200.586 77.7827 201.626 78.476C202.666 79.1347 203.723 79.464 204.798 79.464C205.526 79.464 206.271 79.36 207.034 79.152C207.831 78.9093 208.628 78.4933 209.426 77.904C210.223 77.28 210.968 76.4133 211.662 75.304L212.598 75.616C212.182 76.9333 211.523 78.216 210.622 79.464C209.72 80.712 208.576 81.7347 207.19 82.532C205.803 83.3293 204.139 83.728 202.198 83.728C199.84 83.728 197.76 83.2253 195.958 82.22C194.155 81.2147 192.734 79.6893 191.694 77.644C190.688 75.5987 190.186 72.9987 190.186 69.844C190.186 66.62 190.723 63.9333 191.798 61.784C192.907 59.6347 194.415 58.04 196.322 57C198.263 55.9253 200.464 55.388 202.926 55.388ZM226.009 55.388C227.465 55.388 228.73 55.5787 229.805 55.96C230.914 56.3067 231.712 56.6533 232.197 57C233.376 57.7973 234.104 57.2773 234.381 55.44H235.473C235.404 56.4107 235.352 57.6067 235.317 59.028C235.282 60.4147 235.265 62.2693 235.265 64.592H234.173C234 63.3093 233.67 62.044 233.185 60.796C232.7 59.548 231.989 58.5253 231.053 57.728C230.152 56.9307 228.973 56.532 227.517 56.532C226.512 56.532 225.662 56.8267 224.969 57.416C224.276 57.9707 223.929 58.7853 223.929 59.86C223.929 60.9 224.241 61.8187 224.865 62.616C225.489 63.3787 226.286 64.124 227.257 64.852C228.262 65.5453 229.302 66.2907 230.377 67.088C231.521 67.9547 232.561 68.8213 233.497 69.688C234.433 70.52 235.178 71.4387 235.733 72.444C236.288 73.4493 236.565 74.6453 236.565 76.032C236.565 77.592 236.114 78.9613 235.213 80.14C234.312 81.284 233.116 82.168 231.625 82.792C230.169 83.416 228.54 83.728 226.737 83.728C225.697 83.728 224.761 83.624 223.929 83.416C223.132 83.208 222.438 82.948 221.849 82.636C221.398 82.428 220.965 82.2373 220.549 82.064C220.168 81.856 219.804 81.6827 219.457 81.544C219.11 81.44 218.798 81.5613 218.521 81.908C218.278 82.2547 218.088 82.74 217.949 83.364H216.857C216.926 82.2547 216.978 80.9027 217.013 79.308C217.048 77.7133 217.065 75.5987 217.065 72.964H218.157C218.365 74.836 218.746 76.5 219.301 77.956C219.856 79.3773 220.601 80.504 221.537 81.336C222.508 82.1333 223.721 82.532 225.177 82.532C225.766 82.532 226.338 82.4107 226.893 82.168C227.448 81.9253 227.898 81.5267 228.245 80.972C228.626 80.4173 228.817 79.7067 228.817 78.84C228.817 77.3147 228.314 76.0493 227.309 75.044C226.338 74.0387 225.09 72.9467 223.565 71.768C222.456 70.8667 221.398 69.9827 220.393 69.116C219.422 68.2147 218.625 67.244 218.001 66.204C217.377 65.1293 217.065 63.916 217.065 62.564C217.065 61.004 217.481 59.6867 218.313 58.612C219.145 57.5373 220.237 56.74 221.589 56.22C222.976 55.6653 224.449 55.388 226.009 55.388Z" fill="#1C8C72"/>
</svg>
